<svg width="44" height="59" viewBox="0 0 44 59" fill="none" xmlns="http://www.w3.org/2000/svg">
<path fill-rule="evenodd" clip-rule="evenodd" d="M20.7959 56.9771C21.8827 56.9771 41.3012 34.7205 41.3012 22.5722C41.3012 10.4238 32.1206 0.575684 20.7959 0.575684C9.47119 0.575684 0.29071 10.4238 0.29071 22.5722C0.29071 34.7205 19.7092 56.9771 20.7959 56.9771ZM20.7959 33.5741C26.5376 33.5741 31.1922 28.581 31.1922 22.4218C31.1922 16.2625 26.5376 11.2695 20.7959 11.2695C15.0543 11.2695 10.3998 16.2625 10.3998 22.4218C10.3998 28.581 15.0543 33.5741 20.7959 33.5741Z" fill="#FD0000"/>
<path fill-rule="evenodd" clip-rule="evenodd" d="M0.29071 22.5722C0.29071 34.7205 19.7092 56.9771 20.7959 56.9771V33.5741C15.0543 33.5738 10.3998 28.5809 10.3998 22.4218C10.3998 16.2626 15.0543 11.2696 20.7959 11.2695V0.575684C9.47119 0.575684 0.29071 10.4238 0.29071 22.5722Z" fill="#E20000"/>
</svg>
